<?xml version="1.0" encoding="UTF-8"?>
<!DOCTYPE svg PUBLIC "-//W3C//DTD SVG 1.1//EN" "http://www.w3.org/Graphics/SVG/1.1/DTD/svg11.dtd">
<!-- Creator: CorelDRAW X8 -->
<svg xmlns="http://www.w3.org/2000/svg" xml:space="preserve" width="1861px" height="278px" version="1.1" style="shape-rendering:geometricPrecision; text-rendering:geometricPrecision; image-rendering:optimizeQuality; fill-rule:evenodd; clip-rule:evenodd"
viewBox="0 0 1861 278"
 xmlns:xlink="http://www.w3.org/1999/xlink">
 <defs>
  <style type="text/css">
   <![CDATA[
    .fil0 {fill:#62C68F}
    .fil1 {fill:#286888}
    .fil2 {fill:#070600;fill-rule:nonzero}
   ]]>
  </style>
 </defs>
 <g id="Layer_x0020_1">
  <metadata id="CorelCorpID_0Corel-Layer"/>
  <g id="_2226611860224">
   <g>
    <path class="fil0" d="M786 175l0 93c0,5 -4,10 -10,10l-93 0 103 -103z"/>
    <path class="fil1" d="M548 33l216 0c4,0 7,3 7,7l0 135 -88 88 -135 0c-4,0 -7,-3 -7,-7l0 -216c0,-4 3,-7 7,-7zm93 65l30 0c1,0 1,1 1,1 0,11 0,21 0,31 0,1 1,2 1,2l32 0c0,0 1,0 1,1l0 30c0,1 -1,1 -1,1 -11,0 -21,0 -32,0 0,0 -1,1 -1,1l0 31c0,1 0,2 -1,2l-30 0c-1,0 -1,-1 -1,-2 0,-10 0,-20 0,-31 0,0 0,-1 -1,-1l-31 0c-1,0 -2,0 -2,-1l0 -30c0,-1 1,-1 2,-1 10,0 20,0 31,0 0,0 1,-1 1,-2l0 -31c0,0 0,-1 1,-1z"/>
   </g>
   <path class="fil2" d="M119 78c-27,0 -48,11 -61,32l0 -98 -58 0 0 249 58 0 0 -89c0,-25 14,-43 37,-43 20,0 32,13 32,34l0 98 58 0 0 -114c0,-42 -26,-69 -66,-69z"/>
   <path id="1" class="fil2" d="M310 78c-59,0 -99,37 -99,93 0,55 40,92 99,92 59,0 99,-37 99,-92 0,-56 -40,-93 -99,-93zm0 46c24,0 40,19 40,47 0,29 -16,47 -40,47 -24,0 -41,-18 -41,-47 0,-28 17,-47 41,-47z"/>
   <polygon id="2" class="fil2" points="500,261 500,12 442,12 442,261 "/>
   <path class="fil2" d="M1057 80c-30,0 -52,14 -64,41 -9,-26 -31,-41 -61,-41 -26,0 -47,11 -59,33l0 -30 -58 0 0 181 58 0 0 -90c0,-24 13,-42 35,-43 20,0 31,13 31,35l0 98 59 0 0 -90c0,-24 13,-42 35,-43 19,0 31,13 31,35l0 98 58 0 0 -114c0,-43 -26,-70 -65,-70z"/>
   <path id="1" class="fil2" d="M1242 81c-56,0 -94,37 -94,93 0,55 37,92 96,92 33,0 61,-12 79,-32l-30 -30c-13,12 -28,18 -44,18 -21,0 -37,-12 -42,-33l127 0c4,-66 -28,-108 -92,-108zm-37 77c4,-22 18,-37 38,-37 21,0 35,14 35,37l-73 0z"/>
   <path id="2" class="fil2" d="M1548 14l-58 0 0 93c-13,-17 -32,-27 -56,-27 -50,0 -83,37 -83,92 0,56 33,94 84,94 23,0 42,-9 55,-26l0 24 58 0 0 -250zm-99 207c-24,0 -40,-19 -40,-47 0,-28 16,-47 40,-47 25,0 41,19 41,47 0,28 -16,47 -41,47z"/>
   <path id="3" class="fil2" d="M1625 0c-18,0 -30,13 -30,31 0,18 12,30 30,30 18,0 31,-12 31,-30 0,-18 -13,-31 -31,-31zm29 264l0 -181 -58 0 0 181 58 0z"/>
   <path id="4" class="fil2" d="M1779 81c-56,0 -94,37 -94,93 0,55 38,92 94,92 38,0 67,-16 82,-42l-42 -25c-8,14 -21,20 -37,20 -23,0 -38,-18 -38,-46 0,-27 15,-45 38,-45 15,0 28,7 36,18l42 -25c-16,-26 -45,-40 -81,-40z"/>
  </g>
 </g>
</svg>
