<?xml version="1.0" encoding="UTF-8"?>
<!DOCTYPE svg PUBLIC "-//W3C//DTD SVG 1.1//EN" "http://www.w3.org/Graphics/SVG/1.1/DTD/svg11.dtd">
<!-- Creator: CorelDRAW X8 -->
<svg xmlns="http://www.w3.org/2000/svg" xml:space="preserve" width="245px" height="245px" version="1.1" style="shape-rendering:geometricPrecision; text-rendering:geometricPrecision; image-rendering:optimizeQuality; fill-rule:evenodd; clip-rule:evenodd"
viewBox="0 0 77 77"
 xmlns:xlink="http://www.w3.org/1999/xlink">
 <defs>
  <style type="text/css">
   <![CDATA[
    .fil0 {fill:#62C68F}
    .fil1 {fill:#286888}
   ]]>
  </style>
 </defs>
 <g id="Layer_x0020_1">
  <metadata id="CorelCorpID_0Corel-Layer"/>
  <g id="_2226582450000">
   <path class="fil0" d="M77 45l0 29c0,2 -1,3 -3,3l-29 0 32 -32z"/>
   <path class="fil1" d="M2 0l68 0c1,0 2,1 2,2l0 43 -27 27 -43 0c-1,0 -2,-1 -2,-2l0 -68c0,-1 1,-2 2,-2zm29 21l10 0c0,0 0,0 0,0 0,3 0,6 0,10 0,0 1,0 1,0l9 0c1,0 1,0 1,0l0 10c0,0 0,0 -1,0 -3,0 -6,0 -9,0 -1,0 -1,1 -1,1l0 9c0,1 0,1 0,1l-10 0c0,0 0,0 0,-1 0,-3 0,-6 0,-9 0,0 0,-1 0,-1l-10 0c0,0 0,0 0,0l0 -10c0,0 0,0 0,0 3,0 7,0 10,0 0,0 0,0 0,0l0 -10c0,0 0,0 0,0z"/>
  </g>
 </g>
</svg>
